<?xml version="1.0" encoding="UTF-8"?>
<svg xmlns="http://www.w3.org/2000/svg" xmlns:xlink="http://www.w3.org/1999/xlink" width="10px" height="9px" viewBox="0 0 9 9" version="1.1">
<g id="surface1">
<path style=" stroke:none;fill-rule:nonzero;fill:rgb(30,144,255);fill-opacity:1;" d="M 4.097656 0.34375 C 3.898438 0.53125 3.101562 1.28125 2.324219 2.011719 C 1.546875 2.738281 0.800781 3.441406 0.667969 3.566406 C 0.535156 3.691406 0.34375 3.871094 0.246094 3.960938 C 0.148438 4.054688 0.0507812 4.144531 0.0351562 4.164062 L 0 4.195312 L 0.230469 4.472656 C 0.359375 4.625 0.46875 4.746094 0.472656 4.746094 C 0.480469 4.746094 0.898438 4.359375 1.402344 3.886719 C 4.058594 1.398438 4.488281 1 4.492188 1 C 4.496094 1.003906 4.824219 1.308594 5.222656 1.683594 C 5.621094 2.058594 6.515625 2.898438 7.214844 3.558594 C 7.914062 4.214844 8.492188 4.753906 8.492188 4.753906 C 8.496094 4.753906 8.503906 4.75 8.503906 4.746094 C 8.507812 4.738281 8.511719 4.738281 8.519531 4.746094 C 8.53125 4.757812 8.511719 4.777344 8.757812 4.484375 C 8.863281 4.355469 8.964844 4.238281 8.976562 4.222656 L 9 4.195312 L 8.410156 3.644531 C 8.085938 3.339844 7.324219 2.625 6.71875 2.058594 C 6.113281 1.492188 5.367188 0.796875 5.066406 0.515625 L 4.523438 0.00390625 L 4.460938 0.00390625 Z M 4.097656 0.34375 "/>
<path style=" stroke:none;fill-rule:nonzero;fill:rgb(30,144,255);fill-opacity:1;" d="M 4.011719 2.058594 C 3.757812 2.296875 3.050781 2.964844 2.441406 3.535156 L 1.335938 4.574219 L 1.335938 6.714844 L 1.339844 8.859375 L 1.355469 8.890625 C 1.363281 8.90625 1.382812 8.933594 1.398438 8.945312 C 1.457031 9 1.382812 8.996094 2.496094 8.996094 L 3.5 8.996094 L 3.503906 8.046875 C 3.503906 7.101562 3.503906 7.097656 3.519531 7.066406 C 3.539062 7.023438 3.574219 6.984375 3.613281 6.964844 C 3.644531 6.949219 3.652344 6.949219 4.476562 6.945312 C 5.390625 6.945312 5.351562 6.941406 5.402344 6.992188 C 5.441406 7.027344 5.460938 7.0625 5.46875 7.113281 C 5.476562 7.144531 5.476562 7.453125 5.476562 8.078125 L 5.476562 8.996094 L 6.519531 8.996094 L 7.566406 8.992188 L 7.585938 8.972656 C 7.597656 8.960938 7.617188 8.925781 7.628906 8.894531 L 7.652344 8.835938 L 7.65625 6.703125 L 7.65625 4.570312 L 6.082031 3.097656 C 5.1875 2.261719 4.5 1.621094 4.492188 1.621094 C 4.484375 1.621094 4.320312 1.769531 4.011719 2.058594 Z M 4.011719 2.058594 "/>
</g>
</svg>
